<svg version="1.1" id="Capa_1" xmlns="http://www.w3.org/2000/svg" xmlns:xlink="http://www.w3.org/1999/xlink" x="0px" y="0px" viewBox="0 0 511.998 511.998" style="enable-background:new 0 0 511.998 511.998;" xml:space="preserve"><g transform="translate(0 -1)"> <g> <g> <path d="M450.589,229.421l41.84-41.84c3.336-3.337,3.336-8.738,0-12.066L328.956,12.034c-3.337-3.336-8.738-3.336-12.066,0 L2.496,326.419c-3.328,3.337-3.328,8.738,0,12.066l163.482,163.482c1.664,1.664,3.849,2.5,6.033,2.5 c2.185,0,4.369-0.836,6.033-2.5l110.109-110.109c20.438,36.601,59.561,61.409,104.379,61.409 c65.877,0,119.467-53.589,119.467-119.467C511.998,288.982,487.191,249.859,450.589,229.421z M172.011,483.867L20.595,332.452 L322.923,30.133L474.33,181.548l-40.243,40.243c-12.785-4.758-26.596-7.386-41.004-7.451c-6.421-7.347-9.934-16.659-9.934-26.504 c0-10.786,4.198-20.924,11.836-28.561l1.195-1.237c0.444-0.478,0.87-0.964,1.374-1.374c1.835-1.536,2.944-3.78,3.055-6.17 c0.111-2.398-0.794-4.719-2.492-6.417l-37.726-37.726c-1.698-1.698-4.079-2.543-6.417-2.492c-2.398,0.111-4.634,1.22-6.17,3.055 c-0.41,0.495-0.896,0.93-1.374,1.374l-1.254,1.203c-7.62,7.629-17.758,11.827-28.544,11.827s-20.924-4.198-28.561-11.836 c-0.879-0.879-1.681-1.801-2.466-2.739c-1.536-1.835-3.78-2.935-6.17-3.046c-2.415-0.06-4.719,0.802-6.409,2.492L96.659,282.565 c-1.69,1.69-2.594,4.011-2.492,6.409c0.102,2.389,1.212,4.625,3.046,6.161c0.93,0.785,1.852,1.587,2.748,2.483 c7.62,7.62,11.819,17.766,11.819,28.553c0,10.778-4.198,20.915-11.836,28.553l-1.195,1.246c-0.444,0.478-0.87,0.956-1.365,1.365 c-1.843,1.544-2.953,3.78-3.063,6.178c-0.102,2.389,0.802,4.719,2.492,6.417l37.726,37.717c1.698,1.698,4.122,2.603,6.417,2.492 c2.398-0.102,4.634-1.22,6.17-3.055c0.418-0.495,0.896-0.922,1.374-1.374l1.254-1.203c7.629-7.62,17.758-11.819,28.544-11.819 s20.924,4.198,28.561,11.836c0.879,0.87,1.69,1.801,2.466,2.731c1.544,1.835,3.78,2.944,6.17,3.046 c0.128,0.008,0.247,0.008,0.375,0.008c2.261,0,4.429-0.896,6.033-2.5l53.011-53.011c1.262,7.087,3.154,13.958,5.61,20.557 L172.011,483.867z M273.082,332.497l-57.161,57.153c-10.436-9.079-23.646-14.029-37.623-14.029s-27.187,4.958-37.623,14.029 l-25.856-25.865c9.079-10.436,14.029-23.646,14.029-37.615c0-13.978-4.958-27.196-14.029-37.632l164.19-164.19 c10.445,9.079,23.646,14.037,37.623,14.037s27.196-4.958,37.623-14.037l25.865,25.865c-9.079,10.436-14.037,23.654-14.037,37.623 c0,9.982,2.544,19.567,7.3,28.039C316.994,224.999,273.714,273.72,273.082,332.497z M392.532,436.2 c-55.433,0-100.713-44.273-102.35-99.317c0.08-0.718,0.064-1.443-0.039-2.158c-0.003-0.309-0.012-0.616-0.012-0.925 c0-56.465,45.935-102.4,102.4-102.4c56.465,0,102.4,45.935,102.4,102.4C494.932,390.265,448.997,436.2,392.532,436.2z"></path> <path d="M401.065,266.394V257c0-4.71-3.823-8.533-8.533-8.533c-4.71,0-8.533,3.823-8.533,8.533v9.407 c-9.311,1.896-17.795,6.852-24.055,14.249c-5.214,6.17-7.62,14.063-6.767,22.221c0.87,8.346,5.171,16.094,11.802,21.256 l19.021,14.791v46.503c-9.931-3.523-17.067-13.009-17.067-24.132c0-4.71-3.823-8.533-8.533-8.533s-8.533,3.823-8.533,8.533 c0,20.605,14.682,37.844,34.133,41.808v7.496c0,4.71,3.823,8.533,8.533,8.533c4.71,0,8.533-3.823,8.533-8.533v-7.509 c9.31-1.896,17.793-6.852,24.047-14.249c5.222-6.17,7.629-14.054,6.775-22.221c-0.87-8.346-5.171-16.094-11.802-21.257 l-19.021-14.795v-46.5c9.931,3.523,17.067,13.009,17.067,24.132c0,4.71,3.823,8.533,8.533,8.533s8.533-3.823,8.533-8.533 C435.198,287.597,420.516,270.358,401.065,266.394z M409.607,358.839c2.987,2.321,4.915,5.803,5.308,9.557 c0.367,3.49-0.64,6.835-2.825,9.421c-2.976,3.517-6.792,6.114-11.025,7.611v-33.231L409.607,358.839z M375.456,310.651 c-2.987-2.313-4.915-5.794-5.308-9.54c-0.367-3.499,0.64-6.844,2.825-9.429c2.976-3.517,6.792-6.114,11.025-7.611v33.224 L375.456,310.651z"></path> </g> </g></g><g></g><g></g><g></g><g></g><g></g><g></g><g></g><g></g><g></g><g></g><g></g><g></g><g></g><g></g><g></g></svg>